<svg width="103" height="56" viewBox="0 0 103 56" fill="none" xmlns="http://www.w3.org/2000/svg">
<g filter="url(#filter0_b_26_11)">
<rect width="103" height="56" rx="28" fill="white" fill-opacity="0.05"/>
<rect x="0.75" y="0.75" width="101.5" height="54.5" rx="27.25" stroke="#D9D9D9" stroke-width="1.5"/>
<path d="M16.2344 36L23.5703 20.2969H24.625L31.9609 36H29.4297L24.1328 23.8594L18.7656 36H16.2344ZM19.9141 32.25V30.2578H28.6094V32.25H19.9141ZM37.8906 36.2344C36.9844 36.2344 36.1484 36.0781 35.3828 35.7656C34.6172 35.4531 33.9531 35.1016 33.3906 34.7109V32.5312C34 32.9531 34.6953 33.3359 35.4766 33.6797C36.2734 34.0078 37.1719 34.1719 38.1719 34.1719C38.9531 34.1719 39.6406 33.9766 40.2344 33.5859C40.8281 33.1953 41.125 32.6562 41.125 31.9688C41.125 31.5781 41 31.2422 40.75 30.9609C40.5156 30.6797 40.2266 30.4375 39.8828 30.2344C39.5391 30.0312 39.2031 29.8594 38.875 29.7188L36.2734 28.5469C35.5234 28.2031 34.9375 27.8281 34.5156 27.4219C34.0938 27.0156 33.7969 26.5703 33.625 26.0859C33.4531 25.5859 33.3672 25.0469 33.3672 24.4688C33.3672 23.6406 33.6016 22.8984 34.0703 22.2422C34.5547 21.5703 35.1953 21.0391 35.9922 20.6484C36.7891 20.2578 37.6484 20.0625 38.5703 20.0625C39.4922 20.0625 40.25 20.1953 40.8438 20.4609C41.4531 20.7266 41.9844 21.0078 42.4375 21.3047V23.4844C42 23.1562 41.4688 22.8516 40.8438 22.5703C40.2188 22.2734 39.5391 22.125 38.8047 22.125C38.3359 22.125 37.8438 22.2109 37.3281 22.3828C36.8281 22.5391 36.4062 22.7969 36.0625 23.1562C35.7188 23.5156 35.5469 23.9766 35.5469 24.5391C35.5469 25.1641 35.7734 25.6406 36.2266 25.9688C36.6797 26.2969 37.2266 26.6094 37.8672 26.9062L40.0234 27.8906C41.1016 28.375 41.9141 28.9141 42.4609 29.5078C43.0078 30.1016 43.2812 30.8906 43.2812 31.875C43.2812 32.7344 43.0312 33.4922 42.5312 34.1484C42.0312 34.7891 41.375 35.2969 40.5625 35.6719C39.75 36.0469 38.8594 36.2344 37.8906 36.2344Z" fill="white"/>
<circle cx="50.5" cy="28" r="3.5" fill="#CABBFF"/>
<path d="M61.2266 36V20.2969H63.3359V36H61.2266ZM58.5781 36V34.0078H65.9844V36H58.5781ZM58.5781 22.2891V20.2969H65.9844V22.2891H58.5781ZM83.4453 36L73.25 24.7734V36H71.1406V20.2969H71.9375L82.1328 31.6641V20.2969H84.2422V36H83.4453Z" fill="white"/>
</g>
<defs>
<filter id="filter0_b_26_11" x="-432.2" y="-432.2" width="967.4" height="920.4" filterUnits="userSpaceOnUse" color-interpolation-filters="sRGB">
<feFlood flood-opacity="0" result="BackgroundImageFix"/>
<feGaussianBlur in="BackgroundImageFix" stdDeviation="216.1"/>
<feComposite in2="SourceAlpha" operator="in" result="effect1_backgroundBlur_26_11"/>
<feBlend mode="normal" in="SourceGraphic" in2="effect1_backgroundBlur_26_11" result="shape"/>
</filter>
</defs>
</svg>
