<svg width="48" height="48" viewBox="0 0 48 48" fill="none" xmlns="http://www.w3.org/2000/svg">
<g clip-path="url(#clip0_205_112)">
<rect width="48" height="48" fill="#1157FF"/>
<path d="M17.3074 14C18.2311 14 19.0837 14.0707 19.8652 14.2827C20.6468 14.424 21.2862 14.7067 21.8546 15.0601C22.423 15.4134 22.8493 15.9081 23.1335 16.5442C23.4177 17.1802 23.5598 17.9576 23.5598 18.8057C23.5598 19.7951 23.3466 20.6431 22.8493 21.2792C22.423 21.9152 21.7125 22.4806 20.8599 22.9046C22.0677 23.258 22.9914 23.894 23.5598 24.742C24.1282 25.5901 24.4834 26.6502 24.4834 27.8516C24.4834 28.841 24.2703 29.689 23.915 30.3958C23.5598 31.1025 22.9914 31.7385 22.3519 32.1625C21.7125 32.5866 20.931 32.9399 20.0784 33.1519C19.2258 33.364 18.3732 33.5053 17.5206 33.5053H8V14H17.3074ZM16.739 21.9152C17.5206 21.9152 18.16 21.7032 18.6574 21.3498C19.1547 20.9965 19.3679 20.3604 19.3679 19.583C19.3679 19.159 19.2968 18.735 19.1547 18.4523C19.0126 18.1696 18.7995 17.9576 18.5153 17.7456C18.2311 17.6042 17.9469 17.4629 17.5916 17.3922C17.2364 17.3216 16.8811 17.3216 16.4549 17.3216H12.334V21.9152H16.739ZM16.9522 30.2544C17.3785 30.2544 17.8048 30.1837 18.16 30.1131C18.5153 30.0424 18.8705 29.9011 19.1547 29.689C19.4389 29.477 19.6521 29.265 19.8652 28.9117C20.0073 28.5583 20.1494 28.1343 20.1494 27.6396C20.1494 26.6502 19.8652 25.9435 19.2968 25.4488C18.7284 25.0247 17.9469 24.8127 17.0232 24.8127H12.334V30.2544H16.9522ZM30.6647 30.1837C31.2331 30.7491 32.0857 31.0318 33.2225 31.0318C34.004 31.0318 34.7145 30.8198 35.2829 30.4664C35.8513 30.0424 36.2065 29.6184 36.3486 29.1943H39.83C39.2616 30.8905 38.409 32.0919 37.2723 32.8693C36.1355 33.576 34.7855 34 33.1514 34C32.0146 34 31.0199 33.788 30.0963 33.4346C29.1727 33.0813 28.4622 32.5866 27.8227 31.8799C27.1833 31.2438 26.6859 30.4664 26.4017 29.5477C26.0465 28.629 25.9044 27.6396 25.9044 26.5088C25.9044 25.4488 26.0465 24.4594 26.4017 23.5406C26.757 22.6219 27.2543 21.8445 27.8938 21.1378C28.5332 20.5018 29.3148 19.9364 30.1673 19.583C31.091 19.2297 32.0146 19.0177 33.1514 19.0177C34.3592 19.0177 35.425 19.2297 36.3486 19.7244C37.2723 20.2191 37.9827 20.7845 38.5511 21.6325C39.1195 22.4099 39.5458 23.3286 39.83 24.318C39.9721 25.3074 40.0432 26.2968 39.9721 27.4276H29.67C29.67 28.5583 30.0963 29.6184 30.6647 30.1837ZM35.1408 22.7633C34.6434 22.2686 33.8619 21.9859 32.9383 21.9859C32.2988 21.9859 31.8015 22.1272 31.3752 22.3392C30.9489 22.5512 30.6647 22.8339 30.3805 23.1166C30.0963 23.3993 29.9542 23.7527 29.8831 24.106C29.8121 24.4594 29.741 24.7421 29.741 25.0247H36.1355C35.9934 23.9647 35.6381 23.2579 35.1408 22.7633ZM28.8885 15.3428H36.846V17.2509H28.8885V15.3428Z" fill="white"/>
</g>
<rect x="0.5" y="0.5" width="47" height="47" stroke="black" stroke-opacity="0.1"/>
<defs>
<clipPath id="clip0_205_112">
<rect width="48" height="48" fill="white"/>
</clipPath>
</defs>
</svg>
