<svg width="29" height="28" viewBox="0 0 29 28" fill="none" xmlns="http://www.w3.org/2000/svg">
<g filter="url(#filter0_b_35_206)">
<path d="M28.25 21.9412V1.29412C28.25 1.0172 28.14 0.751633 27.9442 0.555827C27.7484 0.360022 27.4828 0.250014 27.2059 0.25H6.55876C6.28184 0.25 6.01626 0.360005 5.82045 0.555816C5.62464 0.751627 5.51464 1.0172 5.51464 1.29412C5.51464 1.57104 5.62464 1.83661 5.82045 2.03243C6.01626 2.22824 6.28184 2.33824 6.55876 2.33824H24.6853L1.05579 25.9677C0.958844 26.0647 0.88194 26.1798 0.829472 26.3064C0.777004 26.4331 0.75 26.5689 0.75 26.706C0.75 26.8431 0.777004 26.9788 0.829472 27.1055C0.88194 27.2322 0.958843 27.3473 1.05579 27.4442C1.15274 27.5412 1.26784 27.6181 1.3945 27.6705C1.52117 27.723 1.65693 27.75 1.79404 27.75C1.93114 27.75 2.0669 27.723 2.19357 27.6705C2.32023 27.6181 2.43533 27.5412 2.53228 27.4442L26.1618 3.81473V21.9412C26.1618 22.2182 26.2718 22.4837 26.4676 22.6796C26.6634 22.8754 26.929 22.9854 27.2059 22.9854C27.4828 22.9854 27.7484 22.8754 27.9442 22.6796C28.14 22.4837 28.25 22.2182 28.25 21.9412Z" fill="#FFFFFD" stroke="white" stroke-width="0.5"/>
</g>
<defs>
<filter id="filter0_b_35_206" x="-555.186" y="-555.686" width="1139.37" height="1139.37" filterUnits="userSpaceOnUse" color-interpolation-filters="sRGB">
<feFlood flood-opacity="0" result="BackgroundImageFix"/>
<feGaussianBlur in="BackgroundImageFix" stdDeviation="277.843"/>
<feComposite in2="SourceAlpha" operator="in" result="effect1_backgroundBlur_35_206"/>
<feBlend mode="normal" in="SourceGraphic" in2="effect1_backgroundBlur_35_206" result="shape"/>
</filter>
</defs>
</svg>
