<svg width="48" height="48" viewBox="0 0 48 48" fill="none" xmlns="http://www.w3.org/2000/svg">
<g clip-path="url(#clip0_132_4)">
<path fill-rule="evenodd" clip-rule="evenodd" d="M23.9511 8C15.1437 8 8 15.1135 8 23.8835C8 30.8995 12.5994 36.8436 18.8624 38.9874C19.6453 39.0848 19.9388 38.5976 19.9388 38.2078C19.9388 37.8181 19.9388 36.8436 19.9388 35.4794C15.5352 36.4538 14.5566 33.3356 14.5566 33.3356C13.8716 31.4842 12.7951 30.9969 12.7951 30.9969C11.3272 30.0225 12.893 30.0225 12.893 30.0225C14.4587 30.1199 15.3394 31.679 15.3394 31.679C16.8073 34.1152 19.0581 33.4331 19.9388 33.0433C20.0367 31.9714 20.526 31.2893 20.9174 30.8995C17.3945 30.5097 13.6758 29.1455 13.6758 23.0065C13.6758 21.2525 14.263 19.8882 15.3394 18.7189C15.2416 18.4266 14.6544 16.77 15.5352 14.6262C15.5352 14.6262 16.9052 14.2365 19.9388 16.2828C21.211 15.893 22.581 15.7956 23.9511 15.7956C25.3211 15.7956 26.6911 15.9905 27.9633 16.2828C30.9969 14.2365 32.367 14.6262 32.367 14.6262C33.2477 16.77 32.6605 18.4266 32.5627 18.8164C33.5413 19.8882 34.2263 21.3499 34.2263 23.1039C34.2263 29.2429 30.5076 30.5097 26.9847 30.8995C27.5719 31.3867 28.0612 32.3612 28.0612 33.8228C28.0612 35.9666 28.0612 37.6232 28.0612 38.2078C28.0612 38.5976 28.3547 39.0848 29.1376 38.9874C35.4985 36.8436 40 30.8995 40 23.8835C39.9021 15.1135 32.7584 8 23.9511 8Z" fill="white"/>
</g>
<defs>
<clipPath id="clip0_132_4">
<rect width="48" height="48" fill="white"/>
</clipPath>
</defs>
</svg>
