<svg width="60" height="60" viewBox="0 0 60 60" fill="none" xmlns="http://www.w3.org/2000/svg">
<g filter="url(#filter0_d_131_7)">
<g clip-path="url(#clip0_131_7)">
<path d="M54 6H6V54H54V6Z" fill="#231E1B"/>
<path fill-rule="evenodd" clip-rule="evenodd" d="M29.9511 14C21.1437 14 14 21.1135 14 29.8835C14 36.8995 18.5994 42.8436 24.8624 44.9874C25.6453 45.0848 25.9388 44.5976 25.9388 44.2078C25.9388 43.8181 25.9388 42.8436 25.9388 41.4794C21.5352 42.4538 20.5566 39.3356 20.5566 39.3356C19.8716 37.4842 18.7951 36.9969 18.7951 36.9969C17.3272 36.0225 18.893 36.0225 18.893 36.0225C20.4587 36.1199 21.3394 37.679 21.3394 37.679C22.8073 40.1152 25.0581 39.4331 25.9388 39.0433C26.0367 37.9714 26.526 37.2893 26.9174 36.8995C23.3945 36.5097 19.6758 35.1455 19.6758 29.0065C19.6758 27.2525 20.263 25.8882 21.3394 24.7189C21.2416 24.4266 20.6544 22.77 21.5352 20.6262C21.5352 20.6262 22.9052 20.2365 25.9388 22.2828C27.211 21.893 28.581 21.7956 29.9511 21.7956C31.3211 21.7956 32.6911 21.9905 33.9633 22.2828C36.9969 20.2365 38.367 20.6262 38.367 20.6262C39.2477 22.77 38.6605 24.4266 38.5627 24.8164C39.5413 25.8882 40.2263 27.3499 40.2263 29.1039C40.2263 35.2429 36.5076 36.5097 32.9847 36.8995C33.5719 37.3867 34.0612 38.3612 34.0612 39.8228C34.0612 41.9666 34.0612 43.6232 34.0612 44.2078C34.0612 44.5976 34.3547 45.0848 35.1376 44.9874C41.4985 42.8436 46 36.8995 46 29.8835C45.9021 21.1135 38.7584 14 29.9511 14Z" fill="white"/>
</g>
<rect x="7" y="7" width="46" height="46" rx="23" stroke="#13C04D" stroke-width="2" shape-rendering="crispEdges"/>
</g>
<defs>
<filter id="filter0_d_131_7" x="0.4" y="0.4" width="59.2" height="59.2" filterUnits="userSpaceOnUse" color-interpolation-filters="sRGB">
<feFlood flood-opacity="0" result="BackgroundImageFix"/>
<feColorMatrix in="SourceAlpha" type="matrix" values="0 0 0 0 0 0 0 0 0 0 0 0 0 0 0 0 0 0 127 0" result="hardAlpha"/>
<feOffset/>
<feGaussianBlur stdDeviation="2.8"/>
<feComposite in2="hardAlpha" operator="out"/>
<feColorMatrix type="matrix" values="0 0 0 0 0.0165278 0 0 0 0 0.991667 0 0 0 0 0.536602 0 0 0 1 0"/>
<feBlend mode="normal" in2="BackgroundImageFix" result="effect1_dropShadow_131_7"/>
<feBlend mode="normal" in="SourceGraphic" in2="effect1_dropShadow_131_7" result="shape"/>
</filter>
<clipPath id="clip0_131_7">
<rect x="6" y="6" width="48" height="48" rx="24" fill="white"/>
</clipPath>
</defs>
</svg>
