<svg width="32" height="32" viewBox="0 0 32 32" fill="none" xmlns="http://www.w3.org/2000/svg">
<path d="M16 0C7.16312 0 0 7.16312 0 16C0 24.8369 7.16312 32 16 32C24.8369 32 32 24.8369 32 16C32 7.16312 24.8388 0 16 0ZM23.3389 23.0771C23.0523 23.5472 22.4371 23.6962 21.967 23.4077C18.2107 21.113 13.4817 20.5933 7.91211 21.8658C7.37521 21.9881 6.84022 21.6518 6.71794 21.1149C6.59565 20.578 6.93002 20.043 7.46883 19.9207C13.5639 18.5278 18.7915 19.1278 23.0103 21.7053C23.4803 21.9938 23.6293 22.6071 23.3408 23.0771H23.3389ZM25.2973 18.7208C24.9362 19.3074 24.1681 19.4927 23.5816 19.1316C19.2806 16.4872 12.7251 15.723 7.63697 17.2668C6.97779 17.4655 6.28039 17.0948 6.07977 16.4356C5.88106 15.7765 6.25364 15.081 6.91091 14.8803C12.7213 13.1168 19.9455 13.9709 24.8846 17.0069C25.4712 17.368 25.6566 18.1361 25.2954 18.7227L25.2973 18.7208ZM25.4655 14.1849C20.3086 11.122 11.8003 10.8393 6.87652 12.3353C6.0855 12.5742 5.25054 12.129 5.00979 11.338C4.77096 10.5469 5.21615 9.71197 6.00717 9.47122C11.6589 7.75543 21.0556 8.08789 26.9921 11.6112C27.7048 12.0334 27.9379 12.9525 27.5156 13.6613C27.0953 14.3721 26.1743 14.6071 25.4655 14.1849Z" fill="#59FD93"/>
</svg>
