<svg width="97" height="97" viewBox="0 0 97 97" fill="none" xmlns="http://www.w3.org/2000/svg">
<path fill-rule="evenodd" clip-rule="evenodd" d="M6.73654 31.8177C-2.24552 40.7997 -2.24551 55.3625 6.73655 64.3446L32.1023 89.7103C41.0844 98.6924 55.6472 98.6924 64.6292 89.7103L89.7103 64.6292C98.6924 55.6472 98.6924 41.0844 89.7103 32.1023L64.3446 6.73654C55.3625 -2.24552 40.7997 -2.24551 31.8176 6.73655L6.73654 31.8177ZM48.4731 64.4731C57.3096 64.4731 64.4731 57.3096 64.4731 48.4731C64.4731 39.6365 57.3096 32.4731 48.4731 32.4731C39.6365 32.4731 32.4731 39.6365 32.4731 48.4731C32.4731 57.3096 39.6365 64.4731 48.4731 64.4731Z" fill="#2B61FE"/>
</svg>
