<svg width="251" height="251" viewBox="0 0 251 251" fill="none" xmlns="http://www.w3.org/2000/svg">
<path d="M125.333 0C56.1111 0 0 56.1111 0 125.333C0 194.556 56.1111 250.667 125.333 250.667C194.556 250.667 250.667 194.556 250.667 125.333C250.667 56.1111 194.571 0 125.333 0ZM182.821 180.771C180.576 184.453 175.757 185.62 172.075 183.36C142.65 165.385 105.607 161.314 61.9782 171.282C57.7725 172.24 53.5817 169.606 52.6238 165.4C51.666 161.194 54.2852 157.003 58.5059 156.046C106.25 145.135 147.2 149.834 180.247 170.025C183.929 172.285 185.096 177.089 182.836 180.771H182.821ZM198.163 146.646C195.334 151.241 189.317 152.693 184.722 149.864C151.032 129.15 99.68 123.163 59.823 135.256C54.6593 136.813 49.1964 133.909 47.6249 128.746C46.0683 123.582 48.9869 118.134 54.1355 116.563C99.65 102.748 156.24 109.438 194.93 133.221C199.525 136.05 200.976 142.066 198.148 146.661L198.163 146.646ZM199.48 111.115C159.084 87.1227 92.436 84.9076 53.8661 96.6267C47.6698 98.4976 41.1292 95.0103 39.2434 88.814C37.3725 82.6176 40.8598 76.0771 47.0561 74.1912C91.3284 60.7509 164.936 63.3552 211.438 90.9542C217.021 94.2619 218.847 101.461 215.539 107.014C212.246 112.581 205.032 114.422 199.48 111.115Z" fill="#1ED760"/>
</svg>
