<svg width="30" height="30" viewBox="0 0 30 30" fill="none" xmlns="http://www.w3.org/2000/svg">
<path d="M27.7828 0H2.21724C0.993797 0 0 0.964061 0 2.14848V27.8515C0 29.0399 0.993797 30 2.21724 30H27.7828C29.0062 30 30 29.0359 30 27.8515V2.14848C30 0.960126 29.0062 0 27.7828 0ZM9.09463 25.1167H4.56513V11.5687H9.09463V25.1167ZM6.82988 9.71931H6.80216C5.28177 9.71931 4.29985 8.68048 4.29985 7.37802C4.29985 6.07555 5.31345 5.03673 6.86156 5.03673C8.40966 5.03673 9.36386 6.04801 9.39554 7.37802C9.39554 8.67655 8.41362 9.71931 6.83384 9.71931H6.82988ZM25.4349 25.1167H20.9054V17.8686C20.9054 16.0467 20.2481 14.8033 18.6089 14.8033C17.3578 14.8033 16.6134 15.6414 16.2848 16.452C16.166 16.7432 16.1344 17.1445 16.1344 17.5498V25.1167H11.6049C11.6049 25.1167 11.6642 12.8397 11.6049 11.5687H16.1344V13.489C16.7362 12.5643 17.8131 11.2539 20.2164 11.2539C23.1978 11.2539 25.4349 13.1899 25.4349 17.3531V25.1207V25.1167Z" fill="white"/>
</svg>
