<svg width="251" height="243" viewBox="0 0 251 243" fill="none" xmlns="http://www.w3.org/2000/svg">
<path fill-rule="evenodd" clip-rule="evenodd" d="M124.95 0C55.9592 0 0 55.7221 0 124.421C0 179.379 36.0285 225.942 85.0887 242.735C91.2212 243.498 93.5209 239.681 93.5209 236.628C93.5209 233.575 93.5209 225.942 93.5209 215.255C59.0255 222.888 51.3598 198.462 51.3598 198.462C45.9939 183.959 37.5617 180.143 37.5617 180.143C26.0632 172.509 38.3282 172.509 38.3282 172.509C50.5933 173.273 57.4924 185.486 57.4924 185.486C68.9908 204.569 86.6218 199.226 93.5209 196.172C94.2875 187.776 98.1203 182.433 101.187 179.379C73.5902 176.326 44.4608 165.64 44.4608 117.551C44.4608 103.811 49.0601 93.1246 57.4924 83.9648C56.7258 81.6748 52.1264 68.6985 59.0255 51.9055C59.0255 51.9055 69.7574 48.8522 93.5209 64.8819C103.486 61.8286 114.218 61.0653 124.95 61.0653C135.682 61.0653 146.414 62.5919 156.379 64.8819C180.143 48.8522 190.875 51.9055 190.875 51.9055C197.774 68.6985 193.174 81.6749 192.408 84.7281C200.073 93.1246 205.439 104.574 205.439 118.314C205.439 166.403 176.31 176.326 148.714 179.379C153.313 183.196 157.146 190.829 157.146 202.279C157.146 219.072 157.146 232.048 157.146 236.628C157.146 239.681 159.445 243.498 165.578 242.735C215.405 225.942 250.667 179.379 250.667 124.421C249.9 55.7221 193.941 0 124.95 0Z" fill="white"/>
</svg>
