<svg width="32" height="32" viewBox="0 0 32 32" fill="none" xmlns="http://www.w3.org/2000/svg">
<path d="M16.1027 0C7.24845 0 0.00409317 7.24436 0.00409317 16.0986C0.00409317 22.7392 5.63861 28.3737 11.2731 30.7885C11.5 30 9.80286 28.3737 10.0041 27.1663C10.4066 25.7577 11.8768 18.3121 11.8768 18.3121C11.8768 18.3121 11.2731 17.306 11.2731 15.6961C11.2731 13.2813 12.6817 11.4702 14.2916 11.4702C15.7002 11.4702 16.5051 12.4764 16.5051 13.885C16.5051 15.2936 15.499 17.5072 15.0965 19.5195C14.694 21.1294 15.9014 22.538 17.7125 22.538C20.731 22.538 22.7433 18.7146 22.7433 13.885C22.7433 10.2628 20.3285 7.64682 16.1027 7.64682C11.2731 7.64682 8.25463 11.269 8.25463 15.2936C8.25463 16.7023 8.65709 17.7084 9.26079 18.5134C9.46202 18.9158 9.66323 18.9158 9.462 19.3183C9.462 19.5195 9.26077 20.3245 9.05954 20.5257C8.85831 20.9282 8.65709 21.1294 8.25463 20.9281C6.04107 19.922 5.0349 17.5072 5.0349 14.69C5.0349 10.0616 8.8583 4.62834 16.5051 4.62834C22.7433 4.62834 26.768 9.05545 26.768 13.885C26.768 20.1232 23.347 24.9528 18.115 24.9528C16.3039 24.9528 14.694 23.9466 14.0903 22.9405C14.0903 22.9405 13.0842 26.5627 12.8829 27.3676C12.4805 28.575 11.8768 29.7824 11.2731 30.7885C12.6817 31.191 14.2916 31.3922 15.9014 31.3922C24.7556 31.3922 32 24.1479 32 15.2936C32.2012 7.24436 24.9569 0 16.1027 0Z" fill="#FB7C90"/>
</svg>
