<svg width="68" height="43" viewBox="0 0 68 43" fill="none" xmlns="http://www.w3.org/2000/svg">
<path d="M27.2137 18.9778C27.2137 18.9778 33.5942 18.5066 33.5942 11.069C33.5942 3.6314 28.3743 0 21.7622 0C21.7622 0 21.761 0 21.7598 0H9.588H0V41.568H9.23161V41.5704H21.7598C21.7598 41.5704 35.0435 41.9861 35.0435 29.2992C35.0435 29.2992 35.6233 18.9778 27.2137 18.9778ZM20.1965 7.38798H21.7622C21.7622 7.38798 24.7202 7.38798 24.7202 11.7126C24.7202 16.0372 22.9798 16.6631 21.009 16.6631C20.9948 16.6631 20.9805 16.6655 20.9662 16.6655H9.58919V7.38798H20.1976H20.1965ZM20.9603 34.1824H20.8047C20.6312 34.1824 20.4839 34.1777 20.3699 34.1777C20.3509 34.1777 20.3343 34.18 20.3164 34.1824H9.588V23.0721H21.7598V23.0674L21.7622 23.0697C21.7622 23.0697 26.1695 23.013 26.1695 28.7784C26.1695 33.8151 22.627 34.1729 20.9591 34.1824H20.9603Z" fill="white"/>
<path d="M52.7599 10.5762C36.6786 10.5762 36.694 26.5472 36.694 26.5472C36.694 26.5472 35.5904 42.438 52.7599 42.438C52.7599 42.438 67.0689 43.2505 67.0689 31.3844H59.7095C59.7095 31.3844 59.9542 35.8531 53.0046 35.8531C53.0046 35.8531 45.6453 36.3408 45.6453 28.621H67.3124C67.3124 28.621 69.6847 10.5762 52.7599 10.5762ZM59.2996 23.0729H45.5645C45.5645 23.0729 46.4638 16.6663 52.9239 16.6663C59.384 16.6663 59.3008 23.0729 59.3008 23.0729H59.2996Z" fill="white"/>
<path d="M61.0185 2.44824H43.7646V7.56763H61.0185V2.44824Z" fill="white"/>
</svg>
