<svg width="48" height="48" viewBox="0 0 48 48" fill="none" xmlns="http://www.w3.org/2000/svg">
<g clip-path="url(#clip0_205_222)">
<path d="M48 0H0V48H48V0Z" fill="#2867B2"/>
<path d="M36.7828 9H11.2172C9.9938 9 9 9.96406 9 11.1485V36.8515C9 38.0399 9.9938 39 11.2172 39H36.7828C38.0062 39 39 38.0359 39 36.8515V11.1485C39 9.96013 38.0062 9 36.7828 9ZM18.0946 34.1167H13.5651V20.5687H18.0946V34.1167ZM15.8299 18.7193H15.8022C14.2818 18.7193 13.2999 17.6805 13.2999 16.378C13.2999 15.0756 14.3134 14.0367 15.8616 14.0367C17.4097 14.0367 18.3639 15.048 18.3955 16.378C18.3955 17.6765 17.4136 18.7193 15.8338 18.7193H15.8299ZM34.4349 34.1167H29.9054V26.8686C29.9054 25.0467 29.2481 23.8033 27.6089 23.8033C26.3578 23.8033 25.6134 24.6414 25.2848 25.452C25.166 25.7432 25.1344 26.1445 25.1344 26.5498V34.1167H20.6049C20.6049 34.1167 20.6642 21.8397 20.6049 20.5687H25.1344V22.489C25.7362 21.5643 26.8131 20.2539 29.2164 20.2539C32.1978 20.2539 34.4349 22.1899 34.4349 26.3531V34.1207V34.1167Z" fill="white"/>
</g>
<rect x="0.5" y="0.5" width="47" height="47" stroke="black" stroke-opacity="0.1"/>
<defs>
<clipPath id="clip0_205_222">
<rect width="48" height="48" fill="white"/>
</clipPath>
</defs>
</svg>
