<svg width="32" height="32" viewBox="0 0 32 32" fill="none" xmlns="http://www.w3.org/2000/svg">
<path d="M16.0986 0C7.24436 0 0 7.24436 0 16.0986C0 22.7392 4.02465 28.3737 9.65915 30.7885C9.65915 29.5811 9.65913 28.3737 9.86037 27.1663C10.2628 25.7577 11.8727 18.3121 11.8727 18.3121C11.8727 18.3121 11.269 17.306 11.269 15.6961C11.269 13.2813 12.6776 11.4702 14.2875 11.4702C15.6961 11.4702 16.501 12.4764 16.501 13.885C16.501 15.2936 15.4949 17.5072 15.0924 19.5195C14.69 21.1294 15.8973 22.538 17.7084 22.538C20.7269 22.538 22.7392 18.7146 22.7392 13.885C22.7392 10.2628 20.3245 7.64682 16.0986 7.64682C11.269 7.64682 8.25053 11.269 8.25053 15.2936C8.25053 16.7023 8.653 17.7084 9.25669 18.5134C9.45793 18.9158 9.65914 18.9158 9.45791 19.3183C9.45791 19.5195 9.25668 20.3245 9.05545 20.5257C8.85422 20.9281 8.653 21.1294 8.25053 20.9281C6.03698 19.922 5.0308 17.5072 5.0308 14.69C5.0308 10.0616 8.85421 4.62834 16.501 4.62834C22.7392 4.62834 26.7639 9.05545 26.7639 13.885C26.7639 20.1232 23.3429 24.9528 18.1109 24.9528C16.2998 24.9528 14.69 23.9466 14.0863 22.9405C14.0863 22.9405 13.0801 26.5627 12.8788 27.3676C12.4764 28.575 11.8727 29.7824 11.269 30.7885C12.6776 31.191 14.2875 31.3922 15.8973 31.3922C24.7515 31.3922 31.9959 24.1479 31.9959 15.2936C32.1971 7.24436 24.9528 0 16.0986 0Z" fill="#E60023"/>
</svg>
