<svg width="48" height="48" viewBox="0 0 48 48" fill="none" xmlns="http://www.w3.org/2000/svg">
<g clip-path="url(#clip0_205_267)">
<path d="M48 0H0V48H48V0Z" fill="#E60023"/>
<path d="M24.0986 8C15.2444 8 8 15.2444 8 24.0986C8 30.7392 12.0247 36.3737 17.6592 38.7885C17.6592 37.5811 17.6591 36.3737 17.8604 35.1663C18.2628 33.7577 19.8727 26.3121 19.8727 26.3121C19.8727 26.3121 19.269 25.306 19.269 23.6961C19.269 21.2813 20.6776 19.4702 22.2875 19.4702C23.6961 19.4702 24.501 20.4764 24.501 21.885C24.501 23.2936 23.4949 25.5072 23.0924 27.5195C22.69 29.1294 23.8973 30.538 25.7084 30.538C28.7269 30.538 30.7392 26.7146 30.7392 21.885C30.7392 18.2628 28.3245 15.6468 24.0986 15.6468C19.269 15.6468 16.2505 19.269 16.2505 23.2936C16.2505 24.7023 16.653 25.7084 17.2567 26.5134C17.4579 26.9158 17.6591 26.9158 17.4579 27.3183C17.4579 27.5195 17.2567 28.3245 17.0554 28.5257C16.8542 28.9282 16.653 29.1294 16.2505 28.9281C14.037 27.922 13.0308 25.5072 13.0308 22.69C13.0308 18.0616 16.8542 12.6283 24.501 12.6283C30.7392 12.6283 34.7639 17.0554 34.7639 21.885C34.7639 28.1232 31.3429 32.9528 26.1109 32.9528C24.2998 32.9528 22.69 31.9466 22.0863 30.9405C22.0863 30.9405 21.0801 34.5627 20.8788 35.3676C20.4764 36.575 19.8727 37.7824 19.269 38.7885C20.6776 39.191 22.2875 39.3922 23.8973 39.3922C32.7515 39.3922 39.9959 32.1479 39.9959 23.2936C40.1971 15.2444 32.9528 8 24.0986 8Z" fill="white"/>
</g>
<rect x="0.5" y="0.5" width="47" height="47" stroke="black" stroke-opacity="0.1"/>
<defs>
<clipPath id="clip0_205_267">
<rect width="48" height="48" fill="white"/>
</clipPath>
</defs>
</svg>
